<svg xmlns="http://www.w3.org/2000/svg" viewBox="0 0 16 16" style="enable-background:new 0 0 16 16" xml:space="preserve"><circle cx="8.22" cy="8" r="6.14" style="fill:#04beaa"/><path d="M12.11 9.17c-.06.32-.26.55-.48.77-.09.09-.17.18-.29.24-.05.02-.03.06-.03.1.02.17.09.34.12.51.03.23.08.46.12.69.03.14-.08.2-.15.26-.13.13-.24.28-.38.41-.1.09-.19.2-.29.3-.07-.11-.13-.22-.18-.33-.13-.29-.29-.57-.43-.86-.17-.35-.35-.7-.53-1.05-.16-.32-.32-.64-.49-.97-.07-.13-.14-.27-.2-.4-.02-.04-.03-.04-.07-.02-.12.06-.21.16-.32.24-.23.16-.45.35-.68.52-.45.34-.91.68-1.37 1.02-.22.16-.43.33-.65.49-.04.03-.06.07-.05.13.07.35.13.7.2 1.04.02.1.06.19.07.29 0 .03.02.06-.02.08-.14.08-.22.22-.35.31-.04.02-.05.03-.08 0-.19-.17-.38-.35-.56-.52l-1.06-.97c-.24-.22-.48-.44-.73-.66-.16-.13-.29-.29-.47-.41.12-.12.24-.23.36-.34.05-.05.12-.03.18-.02l1.41.24c.06.01.09 0 .13-.04.27-.31.55-.61.83-.92.17-.19.34-.38.52-.57.26-.29.52-.58.78-.86.12-.12.22-.27.36-.38.06-.04.04-.07-.02-.09-.71-.3-1.43-.59-2.14-.89-.47-.19-.93-.39-1.4-.59-.14-.05-.28-.11-.43-.18.33-.24.64-.48.95-.73.05-.04.09-.03.14-.02l1.31.21c.07.01.1-.01.15-.06.28-.3.6-.54 1-.66a.69.69 0 0 1 .35-.01c.16.03.24.12.25.29.01.21-.11.52-.27.68.25.04.48.08.72.12.36.06.73.11 1.09.18.15.03.24-.06.34-.13l1.17-.84c.25-.18.49-.36.75-.51.27-.16.55-.3.88-.29.37.01.62.34.49.7-.12.33-.3.63-.55.88-.11.11-.2.24-.3.36-.22.25-.43.52-.65.76-.13.14-.24.3-.38.43-.05.05-.05.1-.04.16.04.2.06.4.11.6.1.35.13.71.21 1.06.14-.05.26-.14.41-.18.11-.03.22-.05.34-.06.21-.01.38.18.36.39-.04.03-.03.07-.06.1z" style="fill:#fff"/></svg>